<svg width="77" height="146" viewBox="0 0 77 146" fill="none" xmlns="http://www.w3.org/2000/svg">
<path d="M21.9264 15.8528C26.304 15.8528 29.8528 12.304 29.8528 7.92638C29.8528 3.54876 26.304 0 21.9264 0C17.5488 0 14 3.54876 14 7.92638C14 12.304 17.5488 15.8528 21.9264 15.8528Z" fill="#246FFF"/>
<path d="M51.795 15.8528C56.1727 15.8528 59.7214 12.304 59.7214 7.92638C59.7214 3.54876 56.1727 0 51.795 0C47.4174 0 43.8687 3.54876 43.8687 7.92638C43.8687 12.304 47.4174 15.8528 51.795 15.8528Z" fill="#246FFF"/>
<path d="M36.5574 31C26.452 31 16.9185 36.6656 12.0973 45.5453C5.91423 56.9037 9.94552 70.2233 15.829 80.819C21.3039 90.6793 29.1486 98.9325 36.503 107.376" fill="#246FFF"/>
<path d="M36.5574 31C26.452 31 16.9185 36.6656 12.0973 45.5453C5.91423 56.9037 9.94552 70.2233 15.829 80.819C21.3039 90.6793 29.1486 98.9326 36.503 107.376" stroke="#246FFF" stroke-width="16.343" stroke-miterlimit="10" stroke-linecap="round"/>
<path d="M36.612 107.376C43.9663 98.9325 51.811 90.6793 57.2859 80.819C63.1694 70.2505 67.2007 56.9037 61.0176 45.5453C56.1691 36.6656 46.6629 31 36.5575 31" fill="#246FFF"/>
<path d="M36.612 107.376C43.9663 98.9326 51.811 90.6793 57.2859 80.819C63.1694 70.2505 67.2007 56.9037 61.0176 45.5453C56.1691 36.6656 46.6629 31 36.5575 31" stroke="#246FFF" stroke-width="16.343" stroke-miterlimit="10" stroke-linecap="round"/>
<path d="M32.8257 107.376L14.0312 126.28L26.6971 137.557" stroke="#246FFF" stroke-width="16.343" stroke-miterlimit="10" stroke-linecap="round"/>
<path d="M41.5957 110.891L58.3201 129.113L67.908 120.669" stroke="#246FFF" stroke-width="16.343" stroke-miterlimit="10" stroke-linecap="round"/>
<path d="M50.721 53.0087C54.0713 59.1374 51.8922 66.3283 48.7053 72.0211C45.7636 77.3326 41.5144 81.7725 37.5376 86.3486H37.4831C33.5336 81.7725 29.2844 77.3326 26.3426 72.0211C23.1557 66.3283 21.0039 59.1374 24.327 53.0087C26.9419 48.2148 32.0627 45.1641 37.5376 45.1641C43.0125 45.1641 48.1333 48.2148 50.721 53.0087Z" fill="white"/>
</svg>
