<svg width="324" height="324" viewBox="0 0 324 324" fill="none" xmlns="http://www.w3.org/2000/svg">
<circle cx="162" cy="162" r="162" fill="white"/>
<path d="M100.049 53.3584L108.999 69.133" stroke="black" stroke-width="2.14003" stroke-linecap="round" stroke-linejoin="round"/>
<path d="M53.4102 99.3101L69.0574 108.493" stroke="black" stroke-width="2.14003" stroke-linecap="round" stroke-linejoin="round"/>
<path d="M36 162.414L54.1398 162.548" stroke="black" stroke-width="2.14003" stroke-linecap="round" stroke-linejoin="round"/>
<path d="M52.4728 225.775L68.2546 216.826" stroke="black" stroke-width="2.14003" stroke-linecap="round" stroke-linejoin="round"/>
<path d="M98.4245 272.414L107.607 256.766" stroke="black" stroke-width="2.14003" stroke-linecap="round" stroke-linejoin="round"/>
<path d="M161.533 289.823L161.668 271.684" stroke="black" stroke-width="2.14003" stroke-linecap="round" stroke-linejoin="round"/>
<path d="M224.889 273.351L215.939 257.569" stroke="black" stroke-width="2.14003" stroke-linecap="round" stroke-linejoin="round"/>
<path d="M271.527 227.4L255.887 218.217" stroke="black" stroke-width="2.14003" stroke-linecap="round" stroke-linejoin="round"/>
<path d="M288.939 164.289L270.799 164.155" stroke="black" stroke-width="2.14003" stroke-linecap="round" stroke-linejoin="round"/>
<path d="M272.466 100.935L256.692 109.885M163.66 35L163.49 57.9994" stroke="black" stroke-width="2.14003" stroke-linecap="round" stroke-linejoin="round"/>
<path d="M226.514 54.2967L217.331 69.9369" stroke="black" stroke-width="2.14003" stroke-linecap="round" stroke-linejoin="round"/>
<path d="M146.889 37.8408L149.123 55.8484" stroke="#CECECE" stroke-width="2.14003" stroke-linecap="round" stroke-linejoin="round"/>
<path d="M130.645 40.9512L135.208 58.5052" stroke="#CECECE" stroke-width="2.14003" stroke-linecap="round" stroke-linejoin="round"/>
<path d="M114.939 46.1499L121.756 62.9645" stroke="#CECECE" stroke-width="2.14003" stroke-linecap="round" stroke-linejoin="round"/>
<path d="M86.2285 62.4517L97.164 76.9213" stroke="#CECECE" stroke-width="2.14003" stroke-linecap="round" stroke-linejoin="round"/>
<path d="M73.707 73.2661L86.4375 86.1868" stroke="#CECECE" stroke-width="2.14003" stroke-linecap="round" stroke-linejoin="round"/>
<path d="M62.707 85.6182L77.0129 96.7671" stroke="#CECECE" stroke-width="2.14003" stroke-linecap="round" stroke-linejoin="round"/>
<path d="M45.9883 114.093L62.6928 121.158" stroke="#CECECE" stroke-width="2.14003" stroke-linecap="round" stroke-linejoin="round"/>
<path d="M40.5508 129.718L58.0352 134.541" stroke="#CECECE" stroke-width="2.14003" stroke-linecap="round" stroke-linejoin="round"/>
<path d="M37.207 145.915L55.1724 148.417" stroke="#CECECE" stroke-width="2.14003" stroke-linecap="round" stroke-linejoin="round"/>
<path d="M36.9619 178.935L54.9624 176.7" stroke="#CECECE" stroke-width="2.14003" stroke-linecap="round" stroke-linejoin="round"/>
<path d="M40.0658 195.18L57.6198 190.616" stroke="#CECECE" stroke-width="2.14003" stroke-linecap="round" stroke-linejoin="round"/>
<path d="M45.2708 210.883L62.0782 204.067" stroke="#CECECE" stroke-width="2.14003" stroke-linecap="round" stroke-linejoin="round"/>
<path d="M61.5646 239.596L76.0342 228.66" stroke="#CECECE" stroke-width="2.14003" stroke-linecap="round" stroke-linejoin="round"/>
<path d="M72.3795 252.118L85.3002 239.387" stroke="#CECECE" stroke-width="2.14003" stroke-linecap="round" stroke-linejoin="round"/>
<path d="M84.739 263.116L95.888 248.81" stroke="#CECECE" stroke-width="2.14003" stroke-linecap="round" stroke-linejoin="round"/>
<path d="M113.208 279.834L120.273 263.13" stroke="#CECECE" stroke-width="2.14003" stroke-linecap="round" stroke-linejoin="round"/>
<path d="M128.833 285.272L133.657 267.788" stroke="#CECECE" stroke-width="2.14003" stroke-linecap="round" stroke-linejoin="round"/>
<path d="M145.029 288.618L147.53 270.652" stroke="#CECECE" stroke-width="2.14003" stroke-linecap="round" stroke-linejoin="round"/>
<path d="M178.049 288.862L175.814 270.861" stroke="#CECECE" stroke-width="2.14003" stroke-linecap="round" stroke-linejoin="round"/>
<path d="M194.294 285.757L189.73 268.203" stroke="#CECECE" stroke-width="2.14003" stroke-linecap="round" stroke-linejoin="round"/>
<path d="M209.998 280.553L203.182 263.745" stroke="#CECECE" stroke-width="2.14003" stroke-linecap="round" stroke-linejoin="round"/>
<path d="M238.717 264.259L227.781 249.789" stroke="#CECECE" stroke-width="2.14003" stroke-linecap="round" stroke-linejoin="round"/>
<path d="M251.232 253.444L238.502 240.523" stroke="#CECECE" stroke-width="2.14003" stroke-linecap="round" stroke-linejoin="round"/>
<path d="M262.23 241.085L247.924 229.936" stroke="#CECECE" stroke-width="2.14003" stroke-linecap="round" stroke-linejoin="round"/>
<path d="M278.956 212.617L262.244 205.552" stroke="#CECECE" stroke-width="2.14003" stroke-linecap="round" stroke-linejoin="round"/>
<path d="M284.387 196.993L266.902 192.169" stroke="#CECECE" stroke-width="2.14003" stroke-linecap="round" stroke-linejoin="round"/>
<path d="M287.738 180.795L269.766 178.293" stroke="#CECECE" stroke-width="2.14003" stroke-linecap="round" stroke-linejoin="round"/>
<path d="M287.982 147.775L269.975 150.01" stroke="#CECECE" stroke-width="2.14003" stroke-linecap="round" stroke-linejoin="round"/>
<path d="M284.873 131.53L267.319 136.094" stroke="#CECECE" stroke-width="2.14003" stroke-linecap="round" stroke-linejoin="round"/>
<path d="M279.673 115.826L262.859 122.642" stroke="#CECECE" stroke-width="2.14003" stroke-linecap="round" stroke-linejoin="round"/>
<path d="M263.372 87.1067L248.902 98.0422" stroke="#CECECE" stroke-width="2.14003" stroke-linecap="round" stroke-linejoin="round"/>
<path d="M252.558 74.5927L239.637 87.3231" stroke="#CECECE" stroke-width="2.14003" stroke-linecap="round" stroke-linejoin="round"/>
<path d="M240.206 63.5936L229.057 77.8995" stroke="#CECECE" stroke-width="2.14003" stroke-linecap="round" stroke-linejoin="round"/>
<path d="M211.732 46.8679L204.667 63.5795" stroke="#CECECE" stroke-width="2.14003" stroke-linecap="round" stroke-linejoin="round"/>
<path d="M196.106 41.4372L191.282 58.9216" stroke="#CECECE" stroke-width="2.14003" stroke-linecap="round" stroke-linejoin="round"/>
<path d="M179.909 38.0859L177.408 56.0584" stroke="#CECECE" stroke-width="2.14003" stroke-linecap="round" stroke-linejoin="round"/>
<path d="M174.248 28.8193C175.017 28.8179 175.497 27.9837 175.111 27.3177L164.556 9.11345C164.17 8.44744 163.207 8.44928 162.824 9.11677L152.34 27.3594C151.956 28.0268 152.439 28.8591 153.209 28.8577L174.248 28.8193Z" fill="#246FFF"/>
</svg>
