<svg width="248" height="248" viewBox="0 0 248 248" fill="none" xmlns="http://www.w3.org/2000/svg">
<path d="M104.1 55.419C109.382 55.419 113.664 51.1374 113.664 45.8557C113.664 40.5741 109.382 36.2925 104.1 36.2925C98.8187 36.2925 94.5371 40.5741 94.5371 45.8557C94.5371 51.1374 98.8187 55.419 104.1 55.419Z" fill="#9ABDFF"/>
<path d="M140.138 55.419C145.42 55.419 149.701 51.1374 149.701 45.8557C149.701 40.5741 145.42 36.2925 140.138 36.2925C134.856 36.2925 130.575 40.5741 130.575 45.8557C130.575 51.1374 134.856 55.419 140.138 55.419Z" fill="#9ABDFF"/>
<path d="M121.753 73.6943C109.561 73.6943 98.0587 80.5299 92.2419 91.2434C84.7819 104.947 89.6457 121.018 96.7442 133.802C103.35 145.698 112.814 155.656 121.688 165.843" fill="#9ABDFF"/>
<path fill-rule="evenodd" clip-rule="evenodd" d="M83.5805 86.5341C91.1251 72.6431 105.953 63.8354 121.753 63.8354C127.198 63.8354 131.612 68.2495 131.612 73.6945C131.612 79.1395 127.198 83.5535 121.753 83.5535C113.171 83.5535 104.996 88.4149 100.906 95.9478L100.901 95.9573C96.002 104.957 98.6279 116.885 105.364 129.016L105.364 129.016C110.428 138.137 117.324 145.961 124.984 154.654C126.341 156.194 127.723 157.762 129.122 159.368C132.698 163.474 132.269 169.702 128.163 173.278C124.057 176.854 117.829 176.425 114.253 172.319C113.023 170.907 111.752 169.468 110.454 168C102.836 159.38 94.3188 149.743 88.1249 138.588C80.6643 125.152 73.5632 104.941 83.5805 86.5341Z" fill="#9ABDFF"/>
<path d="M121.017 166.341C129.89 156.154 140.157 145.698 146.763 133.802C153.861 121.051 158.725 104.947 151.265 91.2434C145.415 80.5299 133.946 73.6943 121.754 73.6943" fill="#9ABDFF"/>
<path fill-rule="evenodd" clip-rule="evenodd" d="M111.894 73.6945C111.894 68.2495 116.308 63.8354 121.753 63.8354C137.571 63.8354 152.349 72.6568 159.917 86.5188L159.923 86.5298C169.942 104.934 162.848 125.174 155.379 138.591C149.433 149.3 140.729 159.036 133.225 167.432C131.56 169.294 129.954 171.091 128.451 172.817C124.875 176.923 118.647 177.352 114.541 173.776C110.435 170.2 110.006 163.972 113.582 159.866C115.452 157.719 117.309 155.635 119.132 153.589C126.537 145.279 133.372 137.608 138.143 129.016L138.148 129.006C144.874 116.924 147.504 104.963 142.608 95.9624C138.476 88.4008 130.318 83.5535 121.753 83.5535C116.308 83.5535 111.894 79.1395 111.894 73.6945Z" fill="#9ABDFF"/>
<path fill-rule="evenodd" clip-rule="evenodd" d="M124.202 158.852C128.063 162.691 128.082 168.933 124.242 172.795L108.912 188.214L116.413 194.893C120.479 198.513 120.841 204.745 117.22 208.812C113.599 212.879 107.368 213.24 103.301 209.62L80.2388 189.087L110.259 158.892C114.099 155.031 120.341 155.013 124.202 158.852Z" fill="#9ABDFF"/>
<path fill-rule="evenodd" clip-rule="evenodd" d="M121.165 162.82C125.177 159.138 131.414 159.406 135.095 163.417L148.742 178.287L153.062 174.483C157.148 170.884 163.378 171.279 166.977 175.366C170.575 179.452 170.18 185.682 166.094 189.28L147.277 205.852L120.568 176.75C116.886 172.739 117.154 166.502 121.165 162.82Z" fill="#9ABDFF"/>
<path d="M138.841 100.248C142.883 107.642 140.254 116.318 136.409 123.187C132.86 129.595 127.733 134.952 122.935 140.473H122.87C118.104 134.952 112.978 129.595 109.428 123.187C105.583 116.318 102.987 107.642 106.997 100.248C110.151 94.4639 116.33 90.7832 122.935 90.7832C129.541 90.7832 135.719 94.4639 138.841 100.248Z" fill="white"/>
</svg>
