<svg width="119" height="171" viewBox="0 0 119 171" fill="none" xmlns="http://www.w3.org/2000/svg">
<path d="M118.048 170.199H113.412V143H118.048V170.199Z" fill="#292929"/>
<path d="M112.043 170.199H107.132L106.136 167.521C104.304 169.673 101.969 170.749 99.13 170.749C96.5658 170.749 94.3908 169.856 92.6051 168.07C90.8422 166.284 89.9607 164.121 89.9607 161.58C89.9607 159.634 90.5102 157.882 91.6091 156.325C92.7081 154.746 94.1733 153.624 96.0049 152.96C97.081 152.571 98.1341 152.376 99.1644 152.376C101.11 152.376 102.862 152.937 104.419 154.059C105.998 155.158 107.12 156.623 107.784 158.455L112.043 170.199ZM103.698 161.58C103.698 159.977 103.045 158.729 101.74 157.836C100.985 157.31 100.115 157.046 99.13 157.046C97.5274 157.046 96.2911 157.688 95.4211 158.97C94.8716 159.771 94.5969 160.641 94.5969 161.58C94.5969 163.159 95.2494 164.396 96.5544 165.289C97.3557 165.838 98.2142 166.113 99.13 166.113C100.389 166.113 101.465 165.678 102.358 164.808C103.251 163.915 103.698 162.839 103.698 161.58Z" fill="#292929"/>
<path d="M88.5994 152.272C88.5765 154.836 87.6722 157 85.8864 158.763C84.1235 160.526 81.9599 161.407 79.3957 161.407H76.511V170.199H71.8405V143.034L79.4301 143.069C82.0172 143.091 84.1922 143.996 85.955 145.782C87.7408 147.544 88.6223 149.708 88.5994 152.272ZM83.9632 152.238C83.9861 150.956 83.5511 149.891 82.6582 149.044C81.7882 148.174 80.7122 147.728 79.4301 147.705L76.4767 147.67V156.771H79.3957C80.6778 156.771 81.7539 156.336 82.6239 155.466C83.4939 154.596 83.9403 153.52 83.9632 152.238Z" fill="#292929"/>
<path d="M70.485 170.199H65.8488L65.8145 161.51C65.8145 160.274 65.368 159.209 64.4752 158.317C63.5823 157.424 62.5177 156.977 61.2814 156.977C60.0221 156.977 58.9461 157.424 58.0532 158.317C57.1603 159.187 56.7139 160.251 56.7139 161.51V170.199H52.0777V143H56.7139V153.543C58.1333 152.742 59.6558 152.341 61.2814 152.341C63.8456 152.341 66.0205 153.234 67.8063 155.02C69.5921 156.783 70.485 158.946 70.485 161.51V170.199Z" fill="#292929"/>
<path d="M50.7748 170.199C48.2106 170.199 46.0356 169.317 44.2498 167.555C42.4641 165.769 41.5712 163.594 41.5712 161.03V143H46.2073V152.375H50.7748V156.325H46.2073V161.03C46.2073 162.289 46.6538 163.365 47.5467 164.258C48.4396 165.128 49.5156 165.563 50.7748 165.563V170.199Z" fill="#292929"/>
<path d="M40.2022 170.199H35.2912L34.2953 167.521C32.4637 169.673 30.1285 170.749 27.2896 170.749C24.7254 170.749 22.5504 169.856 20.7646 168.07C19.0017 166.284 18.1202 164.121 18.1202 161.58C18.1202 159.634 18.6697 157.882 19.7687 156.325C20.8676 154.746 22.3329 153.624 24.1644 152.96C25.2405 152.571 26.2936 152.376 27.3239 152.376C29.2699 152.376 31.0214 152.937 32.5782 154.059C34.158 155.158 35.2798 156.623 35.9437 158.455L40.2022 170.199ZM31.857 161.58C31.857 159.977 31.2045 158.729 29.8995 157.836C29.144 157.31 28.274 157.046 27.2896 157.046C25.6869 157.046 24.4506 157.688 23.5806 158.97C23.0311 159.771 22.7564 160.641 22.7564 161.58C22.7564 163.159 23.4089 164.396 24.7139 165.289C25.5152 165.838 26.3738 166.113 27.2896 166.113C28.5488 166.113 29.6248 165.678 30.5177 164.808C31.4106 163.915 31.857 162.839 31.857 161.58Z" fill="#292929"/>
<path d="M16.7589 152.272C16.736 154.836 15.8317 157 14.0459 158.763C12.283 160.526 10.1194 161.407 7.55524 161.407H4.67051V170.199H0V143.034L7.58958 143.069C10.1767 143.091 12.3517 143.996 14.1146 145.782C15.9003 147.544 16.7818 149.708 16.7589 152.272ZM12.1227 152.238C12.1456 150.956 11.7106 149.891 10.8177 149.044C9.94773 148.174 8.87168 147.728 7.58958 147.705L4.63617 147.67V156.771H7.55524C8.83734 156.771 9.91339 156.336 10.7834 155.466C11.6534 154.596 12.0998 153.52 12.1227 152.238Z" fill="#292929"/>
<path d="M45.8408 12.6482C49.3335 12.6482 52.1649 9.81679 52.1649 6.32409C52.1649 2.83139 49.3335 0 45.8408 0C42.3481 0 39.5167 2.83139 39.5167 6.32409C39.5167 9.81679 42.3481 12.6482 45.8408 12.6482Z" fill="#246FFF"/>
<path d="M69.6716 12.6482C73.1643 12.6482 75.9957 9.81679 75.9957 6.32409C75.9957 2.83139 73.1643 0 69.6716 0C66.1789 0 63.3475 2.83139 63.3475 6.32409C63.3475 9.81679 66.1789 12.6482 69.6716 12.6482Z" fill="#246FFF"/>
<path d="M57.5142 24.7334C49.4515 24.7334 41.8453 29.2537 37.9986 36.3384C33.0654 45.4008 36.2818 56.0279 40.976 64.4817C45.3441 72.3488 51.603 78.9337 57.4708 85.6707" fill="#246FFF"/>
<path fill-rule="evenodd" clip-rule="evenodd" d="M32.2709 33.2243C37.26 24.0383 47.0654 18.2139 57.5142 18.2139C61.115 18.2139 64.0339 21.1328 64.0339 24.7335C64.0339 28.3343 61.115 31.2532 57.5142 31.2532C51.839 31.2532 46.4329 34.468 43.7283 39.4495L43.7249 39.4557C40.4851 45.4073 42.2216 53.295 46.6759 61.3169L46.6759 61.317C50.0251 67.3488 54.5848 72.5229 59.6506 78.2711C60.5482 79.2897 61.4617 80.3263 62.3871 81.3888C64.752 84.1041 64.468 88.2223 61.7528 90.5872C59.0375 92.9521 54.9193 92.6681 52.5544 89.9528C51.7412 89.0192 50.9003 88.0677 50.0421 87.0967C45.0041 81.3963 39.3721 75.0237 35.2761 67.6469C30.3424 58.7618 25.6465 45.3967 32.2709 33.2243Z" fill="#246FFF"/>
<path d="M57.0273 86C62.895 79.263 69.6845 72.3488 74.0526 64.4817C78.7468 56.0496 81.9632 45.4008 77.03 36.3384C73.1616 29.2537 65.577 24.7334 57.5144 24.7334" fill="#246FFF"/>
<path fill-rule="evenodd" clip-rule="evenodd" d="M50.9947 24.7335C50.9947 21.1328 53.9137 18.2139 57.5144 18.2139C67.9745 18.2139 77.747 24.0473 82.7522 33.2142L82.7562 33.2214C89.3813 45.3917 84.6899 58.7764 79.7513 67.6492C75.8188 74.7307 70.0633 81.1694 65.1005 86.7213C63.9997 87.9528 62.9379 89.1406 61.9437 90.2822C59.5788 92.9974 55.4606 93.2814 52.7453 90.9165C50.0301 88.5516 49.7461 84.4334 52.1109 81.7182C53.3474 80.2985 54.5759 78.9198 55.7815 77.5667C60.6778 72.0716 65.1978 66.9989 68.3527 61.317L68.3562 61.3106C72.8042 53.3207 74.5435 45.4114 71.3056 39.4591C68.5734 34.4587 63.1782 31.2532 57.5144 31.2532C53.9137 31.2532 50.9947 28.3343 50.9947 24.7335Z" fill="#246FFF"/>
<path fill-rule="evenodd" clip-rule="evenodd" d="M59.1336 81.0471C61.6871 83.5859 61.699 87.7139 59.1603 90.2673L49.0221 100.464L53.9824 104.881C56.6717 107.275 56.9108 111.396 54.5165 114.085C52.1221 116.775 48.001 117.014 45.3117 114.619L30.061 101.041L49.9134 81.0738C52.4522 78.5204 56.5802 78.5084 59.1336 81.0471Z" fill="#246FFF"/>
<path fill-rule="evenodd" clip-rule="evenodd" d="M57.1256 83.6715C59.7784 81.2368 63.9026 81.4136 66.3373 84.0664L75.362 93.8995L78.2184 91.3839C80.9206 89.0041 85.0404 89.2655 87.4201 91.9677C89.7999 94.6699 89.5385 98.7897 86.8363 101.169L74.3932 112.128L56.7307 92.8832C54.296 90.2304 54.4728 86.1062 57.1256 83.6715Z" fill="#246FFF"/>
<path d="M68.8146 42.2931C71.4877 47.1828 69.7491 52.9202 67.2064 57.4622C64.8593 61.7 61.4691 65.2424 58.2962 68.8934H58.2527C55.1015 65.2424 51.7113 61.7 49.3642 57.4622C46.8216 52.9202 45.1047 47.1828 47.756 42.2931C49.8423 38.4682 53.928 36.0342 58.2962 36.0342C62.6644 36.0342 66.7501 38.4682 68.8146 42.2931Z" fill="white"/>
</svg>
