<svg width="144" height="144" viewBox="0 0 144 144" fill="none" xmlns="http://www.w3.org/2000/svg">
<rect width="144" height="144" rx="21" fill="white"/>
<path d="M59.3134 29.6482C62.8061 29.6482 65.6375 26.8168 65.6375 23.3241C65.6375 19.8314 62.8061 17 59.3134 17C55.8207 17 52.9893 19.8314 52.9893 23.3241C52.9893 26.8168 55.8207 29.6482 59.3134 29.6482Z" fill="#246FFF"/>
<path d="M83.1442 29.6482C86.6369 29.6482 89.4683 26.8168 89.4683 23.3241C89.4683 19.8314 86.6369 17 83.1442 17C79.6515 17 76.8201 19.8314 76.8201 23.3241C76.8201 26.8168 79.6515 29.6482 83.1442 29.6482Z" fill="#246FFF"/>
<path d="M70.9868 41.7334C62.9241 41.7334 55.3178 46.2537 51.4712 53.3384C46.538 62.4008 49.7544 73.0279 54.4486 81.4817C58.8167 89.3488 65.0756 95.9337 70.9434 102.671" fill="#246FFF"/>
<path d="M70.9868 41.7334C62.9241 41.7334 55.3178 46.2537 51.4712 53.3384C46.538 62.4008 49.7544 73.0279 54.4486 81.4817C58.8167 89.3488 65.0756 95.9337 70.9434 102.671" stroke="#246FFF" stroke-width="13.0394" stroke-miterlimit="10" stroke-linecap="round"/>
<path d="M70.5 103C76.3677 96.263 83.1571 89.3488 87.5253 81.4817C92.2195 73.0496 95.4359 62.4008 90.5026 53.3384C86.6343 46.2537 79.0497 41.7334 70.9871 41.7334" fill="#246FFF"/>
<path d="M70.5 103C76.3677 96.263 83.1571 89.3488 87.5253 81.4817C92.2195 73.0496 95.4359 62.4008 90.5026 53.3384C86.6343 46.2537 79.0497 41.7334 70.9871 41.7334" stroke="#246FFF" stroke-width="13.0394" stroke-miterlimit="10" stroke-linecap="round"/>
<path d="M68.0094 102.67L53.0142 117.753L63.1197 126.75" stroke="#246FFF" stroke-width="13.0394" stroke-miterlimit="10" stroke-linecap="round"/>
<path d="M75.0066 105.475L88.3502 120.014L96 113.276" stroke="#246FFF" stroke-width="13.0394" stroke-miterlimit="10" stroke-linecap="round"/>
<path d="M82.2872 59.2931C84.9603 64.1828 83.2217 69.9202 80.679 74.4622C78.3319 78.7 74.9417 82.2424 71.7688 85.8934H71.7253C68.5741 82.2424 65.1839 78.7 62.8368 74.4622C60.2941 69.9202 58.5773 64.1828 61.2286 59.2931C63.3149 55.4682 67.4006 53.0342 71.7688 53.0342C76.1369 53.0342 80.2226 55.4682 82.2872 59.2931Z" fill="white"/>
</svg>
