<svg width="310" height="310" viewBox="0 0 310 310" fill="none" xmlns="http://www.w3.org/2000/svg">
<rect width="310" height="310" fill="#F5F5F5"/>
<rect x="-126" y="-117" width="613" height="514" fill="white"/>
<g clip-path="url(#clip0_76_235)">
<path d="M154.784 120.115C179.594 120.115 199.71 140.232 199.71 165.042C199.71 189.852 179.594 209.975 154.784 209.975C129.974 209.975 109.857 189.859 109.857 165.042C109.857 140.224 129.974 120.115 154.784 120.115Z" fill="#CECECE"/>
<path d="M92.2383 55.3296L101.305 71.0374" stroke="black" stroke-width="2.14003" stroke-linecap="round" stroke-linejoin="round"/>
<path d="M45.9414 101.626L61.6564 110.693" stroke="black" stroke-width="2.14003" stroke-linecap="round" stroke-linejoin="round"/>
<path d="M29 164.856H47.1403" stroke="black" stroke-width="2.14003" stroke-linecap="round" stroke-linejoin="round"/>
<path d="M45.9414 228.094L61.6564 219.028" stroke="black" stroke-width="2.14003" stroke-linecap="round" stroke-linejoin="round"/>
<path d="M92.2383 274.39L101.305 258.675" stroke="black" stroke-width="2.14003" stroke-linecap="round" stroke-linejoin="round"/>
<path d="M155.476 291.332V273.192" stroke="black" stroke-width="2.14003" stroke-linecap="round" stroke-linejoin="round"/>
<path d="M218.707 274.39L209.641 258.675" stroke="black" stroke-width="2.14003" stroke-linecap="round" stroke-linejoin="round"/>
<path d="M265.003 228.094L249.295 219.028" stroke="black" stroke-width="2.14003" stroke-linecap="round" stroke-linejoin="round"/>
<path d="M281.945 164.856H263.805" stroke="black" stroke-width="2.14003" stroke-linecap="round" stroke-linejoin="round"/>
<path d="M265.003 101.626L249.295 110.693M155.711 36.5V59.5" stroke="black" stroke-width="2.14003" stroke-linecap="round" stroke-linejoin="round"/>
<path d="M218.707 55.3296L209.641 71.0374" stroke="black" stroke-width="2.14003" stroke-linecap="round" stroke-linejoin="round"/>
<path d="M138.961 39.4648L141.329 57.4554" stroke="#CECECE" stroke-width="2.14003" stroke-linecap="round" stroke-linejoin="round"/>
<path d="M122.74 42.6958L127.434 60.2155" stroke="#CECECE" stroke-width="2.14003" stroke-linecap="round" stroke-linejoin="round"/>
<path d="M107.076 48.0107L114.017 64.7743" stroke="#CECECE" stroke-width="2.14003" stroke-linecap="round" stroke-linejoin="round"/>
<path d="M78.4844 64.5249L89.5269 78.913" stroke="#CECECE" stroke-width="2.14003" stroke-linecap="round" stroke-linejoin="round"/>
<path d="M66.0439 75.4321L78.8699 88.258" stroke="#CECECE" stroke-width="2.14003" stroke-linecap="round" stroke-linejoin="round"/>
<path d="M55.1367 87.8652L69.5249 98.9078" stroke="#CECECE" stroke-width="2.14003" stroke-linecap="round" stroke-linejoin="round"/>
<path d="M38.6299 116.463L55.3863 123.404" stroke="#CECECE" stroke-width="2.14003" stroke-linecap="round" stroke-linejoin="round"/>
<path d="M33.3086 132.128L50.8283 136.822" stroke="#CECECE" stroke-width="2.14003" stroke-linecap="round" stroke-linejoin="round"/>
<path d="M30.084 148.35L48.0674 150.718" stroke="#CECECE" stroke-width="2.14003" stroke-linecap="round" stroke-linejoin="round"/>
<path d="M30.084 181.37L48.0674 179.002" stroke="#CECECE" stroke-width="2.14003" stroke-linecap="round" stroke-linejoin="round"/>
<path d="M33.3086 197.592L50.8283 192.898" stroke="#CECECE" stroke-width="2.14003" stroke-linecap="round" stroke-linejoin="round"/>
<path d="M38.6299 213.257L55.3863 206.316" stroke="#CECECE" stroke-width="2.14003" stroke-linecap="round" stroke-linejoin="round"/>
<path d="M55.1367 241.847L69.5249 230.805" stroke="#CECECE" stroke-width="2.14003" stroke-linecap="round" stroke-linejoin="round"/>
<path d="M66.0439 254.288L78.8699 241.462" stroke="#CECECE" stroke-width="2.14003" stroke-linecap="round" stroke-linejoin="round"/>
<path d="M78.4844 265.195L89.5269 250.807" stroke="#CECECE" stroke-width="2.14003" stroke-linecap="round" stroke-linejoin="round"/>
<path d="M107.076 281.702L114.017 264.945" stroke="#CECECE" stroke-width="2.14003" stroke-linecap="round" stroke-linejoin="round"/>
<path d="M122.74 287.023L127.434 269.503" stroke="#CECECE" stroke-width="2.14003" stroke-linecap="round" stroke-linejoin="round"/>
<path d="M138.961 290.248L141.329 272.265" stroke="#CECECE" stroke-width="2.14003" stroke-linecap="round" stroke-linejoin="round"/>
<path d="M171.983 290.248L169.614 272.265" stroke="#CECECE" stroke-width="2.14003" stroke-linecap="round" stroke-linejoin="round"/>
<path d="M188.204 287.023L183.51 269.503" stroke="#CECECE" stroke-width="2.14003" stroke-linecap="round" stroke-linejoin="round"/>
<path d="M203.869 281.702L196.928 264.945" stroke="#CECECE" stroke-width="2.14003" stroke-linecap="round" stroke-linejoin="round"/>
<path d="M232.466 265.195L221.424 250.807" stroke="#CECECE" stroke-width="2.14003" stroke-linecap="round" stroke-linejoin="round"/>
<path d="M244.9 254.288L232.074 241.462" stroke="#CECECE" stroke-width="2.14003" stroke-linecap="round" stroke-linejoin="round"/>
<path d="M255.807 241.847L241.419 230.805" stroke="#CECECE" stroke-width="2.14003" stroke-linecap="round" stroke-linejoin="round"/>
<path d="M272.322 213.257L255.559 206.316" stroke="#CECECE" stroke-width="2.14003" stroke-linecap="round" stroke-linejoin="round"/>
<path d="M277.636 197.592L260.116 192.898" stroke="#CECECE" stroke-width="2.14003" stroke-linecap="round" stroke-linejoin="round"/>
<path d="M280.867 181.37L262.877 179.002" stroke="#CECECE" stroke-width="2.14003" stroke-linecap="round" stroke-linejoin="round"/>
<path d="M280.867 148.35L262.877 150.718" stroke="#CECECE" stroke-width="2.14003" stroke-linecap="round" stroke-linejoin="round"/>
<path d="M277.636 132.128L260.116 136.822" stroke="#CECECE" stroke-width="2.14003" stroke-linecap="round" stroke-linejoin="round"/>
<path d="M272.322 116.463L255.559 123.404" stroke="#CECECE" stroke-width="2.14003" stroke-linecap="round" stroke-linejoin="round"/>
<path d="M255.807 87.8652L241.419 98.9078" stroke="#CECECE" stroke-width="2.14003" stroke-linecap="round" stroke-linejoin="round"/>
<path d="M244.9 75.4321L232.074 88.258" stroke="#CECECE" stroke-width="2.14003" stroke-linecap="round" stroke-linejoin="round"/>
<path d="M232.466 64.5249L221.424 78.913" stroke="#CECECE" stroke-width="2.14003" stroke-linecap="round" stroke-linejoin="round"/>
<path d="M203.869 48.0107L196.928 64.7743" stroke="#CECECE" stroke-width="2.14003" stroke-linecap="round" stroke-linejoin="round"/>
<path d="M188.204 42.6958L183.51 60.2155" stroke="#CECECE" stroke-width="2.14003" stroke-linecap="round" stroke-linejoin="round"/>
<path d="M171.983 39.4648L169.614 57.4554" stroke="#CECECE" stroke-width="2.14003" stroke-linecap="round" stroke-linejoin="round"/>
<path d="M154.784 99.6641V230.427" stroke="#616161" stroke-width="1.4" stroke-linecap="round" stroke-linejoin="round"/>
<path d="M220.161 165.042H89.3984" stroke="#616161" stroke-width="1.4" stroke-linecap="round" stroke-linejoin="round"/>
<path d="M156.032 7.46876C155.636 6.80842 154.674 6.82403 154.3 7.49687L144.076 25.8891C143.702 26.5619 144.197 27.3874 144.966 27.3748L166.004 27.0299C166.774 27.0173 167.241 26.1764 166.846 25.5161L156.032 7.46876Z" fill="#246FFF"/>
</g>
<defs>
<clipPath id="clip0_76_235">
<rect width="360" height="360" fill="white" transform="translate(-25 -50)"/>
</clipPath>
</defs>
</svg>
