<svg width="192" height="192" viewBox="0 0 192 192" fill="none" xmlns="http://www.w3.org/2000/svg">
<g clip-path="url(#clip0_473_2441)">
<path d="M96 192C149.019 192 192 149.019 192 96C192 42.9807 149.019 0 96 0C42.9807 0 0 42.9807 0 96C0 149.019 42.9807 192 96 192Z" fill="#E9F1FF"/>
<path d="M95.9998 176.604C140.516 176.604 176.604 140.516 176.604 96C176.604 51.4838 140.516 15.3962 95.9998 15.3962C51.4836 15.3962 15.396 51.4838 15.396 96C15.396 140.516 51.4836 176.604 95.9998 176.604Z" fill="#9ABDFF"/>
<path d="M95.9998 167.547C135.514 167.547 167.547 135.515 167.547 96.0001C167.547 56.4856 135.514 24.4529 95.9998 24.4529C56.4854 24.4529 24.4526 56.4856 24.4526 96.0001C24.4526 135.515 56.4854 167.547 95.9998 167.547Z" fill="#508CFF"/>
<path d="M128.345 91.0194C129.283 91.0195 130.189 91.3464 130.896 91.9398C131.603 92.5332 132.062 93.3528 132.19 94.2472L132.226 94.7553V97.2459C132.227 105.732 128.894 113.904 122.896 120.124C116.898 126.343 108.679 130.149 99.8864 130.779L99.8813 142.077C99.881 143.023 99.5074 143.934 98.836 144.626C98.1646 145.318 97.2455 145.738 96.2644 145.803C95.2833 145.867 94.3133 145.571 93.5504 144.974C92.7876 144.376 92.2887 143.522 92.1547 142.585L92.1184 142.077V130.779C83.5355 130.166 75.4899 126.524 69.5246 120.553C63.5594 114.581 60.0944 106.7 59.7941 98.4215L59.7734 97.2459V94.7553C59.7737 93.8088 60.1473 92.8976 60.8187 92.206C61.4901 91.5143 62.4092 91.0938 63.3903 91.0293C64.3714 90.9647 65.3414 91.2611 66.1043 91.8584C66.8671 92.4557 67.366 93.3095 67.5 94.2472L67.5362 94.7553V97.2459C67.5356 103.996 70.2466 110.484 75.1021 115.355C79.9575 120.225 86.5814 123.1 93.5882 123.377L94.7061 123.397H97.2937C104.306 123.398 111.048 120.788 116.108 116.115C121.168 111.442 124.154 105.066 124.443 98.3218L124.463 97.2459V94.7553C124.463 93.7645 124.872 92.8143 125.6 92.1136C126.328 91.413 127.315 91.0194 128.345 91.0194ZM95.9999 46.1887C101.49 46.1887 106.755 48.2879 110.638 52.0245C114.52 55.7612 116.701 60.8291 116.701 66.1135V96.0006C116.701 101.285 114.52 106.353 110.638 110.09C106.755 113.826 101.49 115.925 95.9999 115.925C90.5097 115.925 85.2443 113.826 81.3622 110.09C77.48 106.353 75.299 101.285 75.299 96.0006V66.1135C75.299 60.8291 77.48 55.7612 81.3622 52.0245C85.2443 48.2879 90.5097 46.1887 95.9999 46.1887ZM95.9999 53.6605C92.5685 53.6605 89.2776 54.9725 86.8513 57.3079C84.425 59.6433 83.0618 62.8107 83.0618 66.1135V96.0006C83.0618 99.3033 84.425 102.471 86.8513 104.806C89.2776 107.142 92.5685 108.454 95.9999 108.454C99.4312 108.454 102.722 107.142 105.148 104.806C107.575 102.471 108.938 99.3033 108.938 96.0006V66.1135C108.938 62.8107 107.575 59.6433 105.148 57.3079C102.722 54.9725 99.4312 53.6605 95.9999 53.6605Z" fill="#353535"/>
</g>
<defs>
<clipPath id="clip0_473_2441">
<rect width="192" height="192" fill="white"/>
</clipPath>
</defs>
</svg>
